<!-- icon666.com - MILLIONS vector ICONS FREE --><svg version="1.1" id="Capa_1" xmlns="http://www.w3.org/2000/svg" xmlns:xlink="http://www.w3.org/1999/xlink" x="0px" y="0px" viewBox="0 0 460.8 460.8" style="enable-background:new 0 0 460.8 460.8;" xml:space="preserve"><g><g><path d="M242.467,230.4L458.3,14.567c3.333-3.333,3.333-8.733,0-12.067c-3.333-3.333-8.733-3.333-12.067,0L230.4,218.333 L14.567,2.5C11.233-0.833,5.833-0.833,2.5,2.5c-3.333,3.333-3.333,8.733,0,12.067L218.333,230.4L2.5,446.233 c-3.333,3.333-3.333,8.733,0,12.067c1.667,1.667,3.85,2.5,6.033,2.5c2.183,0,4.367-0.833,6.033-2.5L230.4,242.467L446.233,458.3 c1.667,1.667,3.85,2.5,6.033,2.5s4.367-0.833,6.033-2.5c3.333-3.333,3.333-8.733,0-12.067L242.467,230.4z"></path></g></g></svg>