<!-- icon666.com - MILLIONS vector ICONS FREE --><svg clip-rule="evenodd" fill-rule="evenodd" stroke-linejoin="round" stroke-miterlimit="2" viewBox="0 0 134 134" xmlns="http://www.w3.org/2000/svg"><path d="m66.667 33.667c-18.213 0-33 14.787-33 33s14.787 32.999 33 32.999 32.999-14.786 32.999-32.999-14.786-33-32.999-33zm0 4.127c15.935 0 28.872 12.938 28.872 28.873s-12.937 28.872-28.872 28.872-28.873-12.937-28.873-28.872 12.938-28.873 28.873-28.873z" fill="#000000" style="fill: rgb(238, 231, 231);"></path><path d="m68.73 26.892v-13.258c0-1.139-.924-2.064-2.063-2.064s-2.064.925-2.064 2.064v13.258c0 1.139.925 2.064 2.064 2.064s2.063-.925 2.063-2.064z" fill="#000000" style="fill: rgb(238, 231, 231);"></path><path d="m68.73 119.7v-13.259c0-1.139-.924-2.063-2.063-2.063s-2.064.924-2.064 2.063v13.259c0 1.139.925 2.063 2.064 2.063s2.063-.924 2.063-2.063z" fill="#000000" style="fill: rgb(238, 231, 231);"></path><path d="m26.892 64.603h-13.258c-1.139 0-2.064.925-2.064 2.064s.925 2.063 2.064 2.063h13.258c1.139 0 2.064-.924 2.064-2.063s-.925-2.064-2.064-2.064z" fill="#000000" style="fill: rgb(238, 231, 231);"></path><path d="m119.7 64.603h-13.259c-1.139 0-2.063.925-2.063 2.064s.924 2.063 2.063 2.063h13.259c1.139 0 2.063-.924 2.063-2.063s-.924-2.064-2.063-2.064z" fill="#000000" style="fill: rgb(238, 231, 231);"></path><path d="m40.001 37.082-9.375-9.375c-.805-.805-2.113-.805-2.919 0-.805.806-.805 2.114 0 2.919l9.375 9.375c.806.805 2.114.805 2.919 0s.805-2.113 0-2.919z" fill="#000000" style="fill: rgb(238, 231, 231);"></path><path d="m105.626 102.707-9.375-9.375c-.805-.805-2.113-.805-2.919 0-.805.806-.805 2.114 0 2.919l9.375 9.375c.806.805 2.114.805 2.919 0s.805-2.113 0-2.919z" fill="#000000" style="fill: rgb(238, 231, 231);"></path><path d="m37.082 93.332-9.375 9.375c-.805.806-.805 2.114 0 2.919.806.805 2.114.805 2.919 0l9.375-9.375c.805-.805.805-2.113 0-2.919-.805-.805-2.113-.805-2.919 0z" fill="#000000" style="fill: rgb(238, 231, 231);"></path><path d="m102.707 27.707-9.375 9.375c-.805.806-.805 2.114 0 2.919.806.805 2.114.805 2.919 0l9.375-9.375c.805-.805.805-2.113 0-2.919-.805-.805-2.113-.805-2.919 0z" fill="#000000" style="fill: rgb(238, 231, 231);"></path></svg>